<?xml version="1.0" encoding="utf-8"?>
<!-- Generator: Adobe Illustrator 18.1.1, SVG Export Plug-In . SVG Version: 6.00 Build 0)  -->
<!DOCTYPE svg PUBLIC "-//W3C//DTD SVG 1.1//EN" "http://www.w3.org/Graphics/SVG/1.1/DTD/svg11.dtd">
<svg version="1.1" id="Layer_1" xmlns="http://www.w3.org/2000/svg" xmlns:xlink="http://www.w3.org/1999/xlink" x="0px" y="0px"
	 width="132px" height="23px" viewBox="-140.8 385.5 132 23" enable-background="new -140.8 385.5 132 23" xml:space="preserve">
<g>
	<path fill="#FFFFFF" d="M-76.7,399.9c-0.1,0.3-0.8,1.5-2.4,1.5c-1.9,0-2.6-1.6-2.6-2.7c0-1.9,1.3-3.7,3.2-3.7
		c2.1,0,2.6,1.5,2.6,1.8h3c0.2-1.1-0.7-4.6-5.6-4.6c-3.5,0-6.4,2.8-6.4,6.6c0,3.1,1.9,5.4,5.5,5.4c4.4,0,5.6-3.5,5.8-4.4H-76.7z"/>
	<path fill="#FFFFFF" d="M-100,400.7c0-0.2,0.1-0.5,0.2-1.2c0.2-0.7,2.3-10.6,2.3-10.6h-2.9l-2.3,10.9c-0.1,0.5-0.1,0.9-0.1,1.3
		c0,2.4,1.8,3.1,3.3,3.1c0.5,0,1-0.1,1.1-0.1c0.1-0.2,0.5-2.3,0.5-2.4c-0.1,0-0.4,0-0.7,0C-99.7,401.8-100,401.3-100,400.7z"/>
	<polygon fill="#FFFFFF" points="-59.5,392.2 -63.5,392.2 -68.6,396.8 -66.9,388.9 -69.7,388.9 -73,403.9 -70.1,403.9 -69.3,400.3 
		-67.6,398.9 -65.2,403.9 -62,403.9 -65.4,397.2 	"/>
	<path fill="#FFFFFF" d="M-115.7,399.3c0.2-1.1,2.3-10.4,2.3-10.4s3.5,0,5.4,0c4,0,4.9,2.2,4.9,3.5c0,2.9-2.8,3.7-3.1,3.8
		c0.3,0.1,2.1,0.8,2.1,3.1c0,2.5-2.3,4.6-5.9,4.6c0,0-1.3,0-1.7,0C-114.6,403.9-116.2,401.9-115.7,399.3z M-107.2,399.1
		c0-0.7-0.5-1.6-2.5-1.6h-2.6l-0.8,3.7h3C-108.2,401.1-107.2,400.3-107.2,399.1z M-106.2,393c0-0.7-0.6-1.4-1.9-1.4h-2.9l-0.7,3h3.1
		C-107,394.7-106.2,393.9-106.2,393z"/>
	<path fill="#FFFFFF" d="M-60.8,399.3c0.2-1.1,2.3-10.4,2.3-10.4s3.5,0,5.4,0c4,0,4.9,2.2,4.9,3.5c0,2.9-2.8,3.7-3.1,3.8
		c0.3,0.1,2.1,0.8,2.1,3.1c0,2.5-2.3,4.6-5.9,4.6c0,0-1.3,0-1.7,0C-59.8,403.9-61.4,401.9-60.8,399.3z M-52.3,399.1
		c0-0.7-0.5-1.6-2.5-1.6h-2.6l-0.8,3.7h3C-53.3,401.1-52.3,400.3-52.3,399.1z M-51.4,393c0-0.7-0.6-1.4-1.9-1.4h-2.9l-0.6,3h3
		C-52.2,394.7-51.4,393.9-51.4,393z"/>
	<path fill="#FFFFFF" d="M-28.5,392.2c-3,0-5.1,1.8-5.8,5.2c-0.3,1.4-1.4,6.6-1.4,6.6h2.9c0,0,1-4.9,1.4-6.4c0.5-2,1.5-2.7,2.9-2.7
		c0.5,0,0.7,0.1,0.9,0.1c0.1-0.4,0.5-2.2,0.6-2.6C-27.4,392.2-27.9,392.2-28.5,392.2z"/>
	<path fill="#FFFFFF" d="M-18.8,408.5l9.6-16.2h-3.1l-4.4,7.6l-1-7.7c0,0-1.5,0-3.3,0c-3.8,0-5.7,1.7-6.4,5
		c-0.3,1.7-1.4,6.7-1.4,6.7h2.9c0,0,1-4.8,1.5-6.8c0.4-1.9,1.8-2.5,3.3-2.1l0.6-2.7c0.5,2.6,1.8,11.1,1.8,11.1l-3,5.2L-18.8,408.5
		L-18.8,408.5z"/>
	<path fill="#FFFFFF" d="M-91.8,398.9c0.6-0.1,2.5-0.4,2.7-0.4c-0.1,0.2-0.1,0.5-0.2,0.7c-0.3,1.4-1.8,2.3-3.4,2.3
		c-1,0-1.6-0.6-1.6-1.2C-94.2,399.9-93.7,399.2-91.8,398.9z M-92.8,395.9c0.1-0.1,0.8-1.3,2.6-1.3c1.1,0,1.7,0.4,1.7,0.9
		c0,0.7-1.1,0.9-3.1,1.2c-3.4,0.5-5.6,1.5-5.6,4c0,1.7,1.4,3.4,4,3.4c2.1,0,3.3-1.3,3.4-1.4c0,0.3,0.1,0.8,0.1,1.1
		c0.2,0,2.2,0,2.9,0c-0.1-0.5-0.3-1.5,0.1-3c0.2-0.8,0.7-3.2,1-4.5c0.5-2.5-0.9-4.2-4.4-4.2c-4.5,0-5.7,3.2-6,3.7
		C-96.1,395.9-92.8,395.9-92.8,395.9z"/>
	<path fill="#FFFFFF" d="M-39.9,400.4c-0.1,0.2-0.8,1.2-2.3,1.2c-2.2,0-2.7-1.9-2.7-2.4c1.2,0,8.1,0,8.7,0c0.1-0.2,0.2-1,0.2-1.8
		c0-2.7-1.9-5.3-5.6-5.3c-3.4,0-6.2,2.9-6.2,6.3c0,3.3,2,5.7,5.5,5.7c4.4,0,5.6-3.4,5.7-3.7C-37.4,400.4-39.9,400.4-39.9,400.4z
		 M-41.6,394.8c1.9,0,2.6,1.1,2.6,2.1c-1.1,0-4.4,0-5.5,0C-44.4,396.3-43.5,394.8-41.6,394.8z"/>
</g>
<g>
	<path fill="#FFFFFF" d="M-133.7,387.2c0-0.7-0.5-1.7-2.3-1.7c-0.7,0-2.9,0-2.9,0l-0.9,3.8c0,0,1.5,0,3,0
		C-134.4,389.3-133.7,388.2-133.7,387.2z"/>
	<path fill="#FFFFFF" d="M-126,387.2c0-0.7-0.5-1.7-2.3-1.7c-0.7,0-2.9,0-2.9,0l-0.8,3.8c0,0,1.5,0,3,0
		C-126.7,389.3-126,388.2-126,387.2z"/>
	<path fill="#FFFFFF" d="M-134.7,392.8c0-0.7-0.5-1.7-2.3-1.7c-0.7,0-2.9,0-2.9,0l-0.9,3.8c0,0,1.5,0,3,0
		C-135.4,394.9-134.7,393.9-134.7,392.8z"/>
	<path fill="#FFFFFF" d="M-127,392.8c0-0.7-0.5-1.7-2.3-1.7c-0.7,0-2.9,0-2.9,0l-0.8,3.8c0,0,1.5,0,3,0
		C-127.7,394.9-127,393.9-127,392.8z"/>
	<path fill="#FFFFFF" d="M-118.9,390.5c0-0.7-0.5-1.7-2.3-1.7c-0.7,0-2.9,0-2.9,0l-0.8,3.8c0,0,1.5,0,3,0
		C-119.6,392.6-118.9,391.6-118.9,390.5z"/>
	<path fill="#FFFFFF" d="M-120.1,396.4c0-0.7-0.5-1.7-2.3-1.7c-0.7,0-2.9,0-2.9,0l-0.8,3.8c0,0,1.5,0,3,0
		C-120.7,398.5-120.1,397.5-120.1,396.4z"/>
	<path fill="#FFFFFF" d="M-128.2,398.7c0-0.7-0.5-1.7-2.3-1.7c-0.7,0-2.9,0-2.9,0l-0.8,3.8c0,0,1.5,0,3,0
		C-128.8,400.8-128.2,399.7-128.2,398.7z"/>
</g>
<g>
	<g>
		<path fill="#FFFFFF" d="M-10.3,401c0.9,0,1.5,0.7,1.5,1.5c0,0.9-0.7,1.5-1.5,1.5c-0.9,0-1.5-0.7-1.5-1.5
			C-11.8,401.7-11.1,401-10.3,401L-10.3,401z M-10.3,401.2c-0.7,0-1.3,0.6-1.3,1.3c0,0.7,0.6,1.3,1.3,1.3c0.7,0,1.3-0.6,1.3-1.3
			C-9,401.9-9.6,401.2-10.3,401.2L-10.3,401.2z M-10.6,403.5h-0.3v-1.7c0.2,0,0.3-0.1,0.5-0.1c0.3,0,0.5,0.1,0.5,0.1
			c0.1,0.1,0.2,0.2,0.2,0.3c0,0.2-0.2,0.3-0.3,0.4l0,0c0.2,0,0.2,0.2,0.3,0.4c0.1,0.3,0.1,0.3,0.1,0.4h-0.3
			c-0.1-0.1-0.1-0.2-0.1-0.5c-0.1-0.2-0.2-0.3-0.3-0.3h-0.2L-10.6,403.5L-10.6,403.5z M-10.6,402.5h0.2c0.2,0,0.4-0.1,0.4-0.3
			c0-0.2-0.1-0.3-0.4-0.3c-0.1,0-0.2,0-0.2,0V402.5z"/>
	</g>
</g>
</svg>
