<svg id="Layer_1" data-name="Layer 1" xmlns="http://www.w3.org/2000/svg" viewBox="0 0 100 100"><defs><style>.cls-1{fill:#231f20;}.cls-2{fill:#fff;}</style></defs><title>icon-home-qnx</title><path class="cls-1" d="M1039.26,98.91a50,50,0,1,0-50-50,50,50,0,0,0,50,50" transform="translate(-989.26 1.09)"/><path class="cls-2" d="M1054.36,56h5.8l5.8-5.5,5.5,5.5h6.5l-9-7.9,8.1-7.3h-5.7l-5.2,4.8-5.1-4.8h-6.3l8.3,7.5Zm-25.3,0h5.4v-8.4a10.12,10.12,0,0,0-.4-3.1,32.55,32.55,0,0,0,3.5,3.7l9.7,7.8h5.4V40.81h-5.4V49a10.12,10.12,0,0,0,.4,3.1,23.77,23.77,0,0,0-3.5-3.6l-8.9-7.6h-6.2V56Zm-12-2.9a10.64,10.64,0,0,1-3.7.6c-4.5,0-6.9-1.8-6.9-5.2s2.4-5.3,6.9-5.3,6.9,1.8,6.9,5.5a3.85,3.85,0,0,1-.6,2.4,11.65,11.65,0,0,0-6.2-1.8v2.6a7.59,7.59,0,0,1,3.6,1.2m10,4.1v-2.6a7.4,7.4,0,0,1-3.6-.9,6.17,6.17,0,0,0,2.9-5.3c0-5-4.9-7.8-12.8-7.8s-12.8,2.9-12.8,7.8,4.9,7.8,12.8,7.8a24.32,24.32,0,0,0,6.4-.8,11.6,11.6,0,0,0,6.6,1.7h0.5v0.1Z" transform="translate(-989.26 1.09)"/></svg>