<svg id="Layer_2" data-name="Layer 2" xmlns="http://www.w3.org/2000/svg" xmlns:xlink="http://www.w3.org/1999/xlink" viewBox="0 0 100 100"><defs><style>.cls-1,.cls-4{fill:none;}.cls-2{clip-path:url(#clip-path);}.cls-3{fill:#231f20;}.cls-4{stroke:#fff;stroke-linecap:round;stroke-linejoin:round;stroke-width:2px;}</style><clipPath id="clip-path" transform="translate(-500.36 -2.22)"><rect class="cls-1" x="500.36" y="2.22" width="100" height="100"/></clipPath></defs><title>icon-home-news</title><g class="cls-2"><path class="cls-3" d="M550.36,102.22a50,50,0,1,0-50-50,50,50,0,0,0,50,50" transform="translate(-500.36 -2.22)"/></g><path class="cls-4" d="M549.66,34.12V74.65M536.57,58.07L545.22,60m-8.65-8.86L545.22,53m-8.65-8.74,8.65,1.92m-8.65-8.92,8.65,1.92m4.17-5.09-17.34-4.4V70.28l17.17,4.36M532.05,34.16h-4.89V74.72h45m-9.41-16.65L554.1,60m8.65-8.86L554.1,53m8.65-8.74-8.65,1.92m8.65-8.92-8.65,1.92m-4.17-5.09,17.34-4.4V70.28l-17.17,4.36m22.07,0.07V34.16h-4.89" transform="translate(-500.36 -2.22)"/></svg>