<svg id="Layer_2" data-name="Layer 2" xmlns="http://www.w3.org/2000/svg" xmlns:xlink="http://www.w3.org/1999/xlink" viewBox="0 0 100 100"><defs><style>.cls-1,.cls-4,.cls-5{fill:none;}.cls-2{clip-path:url(#clip-path);}.cls-3{fill:#231f20;}.cls-4,.cls-5{stroke:#fff;stroke-width:2px;}.cls-4{stroke-miterlimit:10;}.cls-5{stroke-miterlimit:3;}</style><clipPath id="clip-path" transform="translate(-335.06)"><rect class="cls-1" x="335.06" width="100" height="100"/></clipPath></defs><title>icon-home-blog</title><g class="cls-2"><path class="cls-3" d="M385.06,100a50,50,0,1,0-50-50,50,50,0,0,0,50,50" transform="translate(-335.06)"/></g><polyline class="cls-4" points="37.75 60.16 37.75 72.5 69.32 72.5 69.32 55.39 69.32 39.07 57.75 27.5 37.75 27.5 37.75 33.78"/><polyline class="cls-5" points="69.32 39.07 57.75 39.07 57.75 27.5"/><g class="cls-2"><path class="cls-4" d="M365.08,46.78a10.57,10.57,0,1,0,10.57-10.58A10.56,10.56,0,0,0,365.08,46.78ZM369,56.15l-7.37,7.07a1.32,1.32,0,1,1-1.87-1.87l5.85-5.4" transform="translate(-335.06)"/></g></svg>