<svg id="Layer_2" data-name="Layer 2" xmlns="http://www.w3.org/2000/svg" xmlns:xlink="http://www.w3.org/1999/xlink" viewBox="0 0 100 100"><defs><style>.cls-1,.cls-4{fill:none;}.cls-2{clip-path:url(#clip-path);}.cls-3{fill:#231f20;}.cls-4{stroke:#fff;stroke-miterlimit:10;stroke-width:2px;}</style><clipPath id="clip-path" transform="translate(6)"><rect class="cls-1" x="-6" width="100" height="120"/></clipPath></defs><title>icon-home-support</title><g class="cls-2"><path class="cls-3" d="M44,100A50,50,0,1,0-6,50a50,50,0,0,0,50,50" transform="translate(6)"/><path class="cls-4" d="M66.5,51.5v15l-15,6h-6m0.46,0H42v-2H46v2ZM21.5,54.5V50a22.5,22.5,0,1,1,45,0v4.5m0,9a3.21,3.21,0,0,1-3.26,3.13H60a3.21,3.21,0,0,1-3.26-3.13V54.11A3.21,3.21,0,0,1,60,51h3.26a3.21,3.21,0,0,1,3.26,3.13V63.5Zm-35.22,0A3.21,3.21,0,0,1,28,66.63H24.76A3.21,3.21,0,0,1,21.5,63.5V54.11A3.21,3.21,0,0,1,24.76,51H28a3.21,3.21,0,0,1,3.26,3.13V63.5Z" transform="translate(6)"/></g></svg>