<svg id="Layer_2" data-name="Layer 2" xmlns="http://www.w3.org/2000/svg" xmlns:xlink="http://www.w3.org/1999/xlink" viewBox="0 0 100 100"><defs><style>.cls-1,.cls-4{fill:none;}.cls-2{clip-path:url(#clip-path);}.cls-3{fill:#231f20;}.cls-4{stroke:#fff;stroke-linecap:round;stroke-linejoin:round;stroke-width:2px;}</style><clipPath id="clip-path" transform="translate(-659 -1.12)"><rect class="cls-1" x="659" y="1.12" width="100" height="100"/></clipPath></defs><title>icon-home-careers</title><g class="cls-2"><path class="cls-3" d="M709,101.12a50,50,0,1,0-50-50,50,50,0,0,0,50,50" transform="translate(-659 -1.12)"/><path class="cls-4" d="M714.87,59.93c5.88-4.85,5.87-13.43,5.87-13.43V37.56c-0.85-5.08-6.58-8.94-11.73-8.94h0c-5.15,0-10.89,3.86-11.73,8.94V46.5s0,8.58,5.87,13.43m0,0L686.5,69.06v3a1.51,1.51,0,0,0,1.5,1.52h42a1.51,1.51,0,0,0,1.5-1.52v-3h0l-16.63-9.13" transform="translate(-659 -1.12)"/></g></svg>