<svg id="Layer_1" data-name="Layer 1" xmlns="http://www.w3.org/2000/svg" xmlns:xlink="http://www.w3.org/1999/xlink" viewBox="0 0 157.85 51.33"><defs><style>.cls-1{fill:none;}.cls-2{clip-path:url(#clip-path);}.cls-3{fill:#2d6458;}</style><clipPath id="clip-path" transform="translate(-542 -515.67)"><rect class="cls-1" x="542" y="515.67" width="157.85" height="51.33"/></clipPath></defs><title>icon-forrester-green</title><g class="cls-2"><path class="cls-3" d="M586.61,541.06c0,3.33-1.68,6.89-4.89,6.89s-5.29-3.54-5.29-7.26c0-3.26,1.67-6.22,4.9-6.22,3.65,0,5.28,3.85,5.28,6.59" transform="translate(-542 -515.67)"/><path class="cls-3" d="M594.69,534.66c-1.05,0-1.08.55-1.08,1.45V540c0,0.8,0,.85,1.15.85,0.82,0,3.1,0,3.1-2.87a3,3,0,0,0-3.17-3.28m14.77,0c-1.05,0-1.08.55-1.08,1.45V540c0,0.8,0,.85,1.15.85,0.83,0,3.11,0,3.11-2.87a3,3,0,0,0-3.17-3.28m0,0c-1.05,0-1.08.55-1.08,1.45V540c0,0.8,0,.85,1.15.85,0.83,0,3.11,0,3.11-2.87a3,3,0,0,0-3.17-3.28m-14.77,0c-1.05,0-1.08.55-1.08,1.45V540c0,0.8,0,.85,1.15.85,0.82,0,3.1,0,3.1-2.87a3,3,0,0,0-3.17-3.28m0,0c-1.05,0-1.08.55-1.08,1.45V540c0,0.8,0,.85,1.15.85,0.82,0,3.1,0,3.1-2.87a3,3,0,0,0-3.17-3.28m14.77,0c-1.05,0-1.08.55-1.08,1.45V540c0,0.8,0,.85,1.15.85,0.83,0,3.11,0,3.11-2.87a3,3,0,0,0-3.17-3.28m0,0c-1.05,0-1.08.55-1.08,1.45V540c0,0.8,0,.85,1.15.85,0.83,0,3.11,0,3.11-2.87a3,3,0,0,0-3.17-3.28m-14.77,0c-1.05,0-1.08.55-1.08,1.45V540c0,0.8,0,.85,1.15.85,0.82,0,3.1,0,3.1-2.87a3,3,0,0,0-3.17-3.28m0,0c-1.05,0-1.08.55-1.08,1.45V540c0,0.8,0,.85,1.15.85,0.82,0,3.1,0,3.1-2.87a3,3,0,0,0-3.17-3.28m14.77,0c-1.05,0-1.08.55-1.08,1.45V540c0,0.8,0,.85,1.15.85,0.83,0,3.11,0,3.11-2.87a3,3,0,0,0-3.17-3.28m0,0c-1.05,0-1.08.55-1.08,1.45V540c0,0.8,0,.85,1.15.85,0.83,0,3.11,0,3.11-2.87a3,3,0,0,0-3.17-3.28m-14.77,0c-1.05,0-1.08.55-1.08,1.45V540c0,0.8,0,.85,1.15.85,0.82,0,3.1,0,3.1-2.87a3,3,0,0,0-3.17-3.28m0,0c-1.05,0-1.08.55-1.08,1.45V540c0,0.8,0,.85,1.15.85,0.82,0,3.1,0,3.1-2.87a3,3,0,0,0-3.17-3.28m14.77,0c-1.05,0-1.08.55-1.08,1.45V540c0,0.8,0,.85,1.15.85,0.83,0,3.11,0,3.11-2.87a3,3,0,0,0-3.17-3.28m64,0c-1.06,0-1.08.55-1.08,1.45V540c0,0.8,0,.85,1.15.85,0.83,0,3.1,0,3.1-2.87a3,3,0,0,0-3.17-3.28m0,0c-1.06,0-1.08.55-1.08,1.45V540c0,0.8,0,.85,1.15.85,0.83,0,3.1,0,3.1-2.87a3,3,0,0,0-3.17-3.28m-64,0c-1.05,0-1.08.55-1.08,1.45V540c0,0.8,0,.85,1.15.85,0.83,0,3.11,0,3.11-2.87a3,3,0,0,0-3.17-3.28m-14.77,0c-1.05,0-1.08.55-1.08,1.45V540c0,0.8,0,.85,1.15.85,0.82,0,3.1,0,3.1-2.87a3,3,0,0,0-3.17-3.28m0,0c-1.05,0-1.08.55-1.08,1.45V540c0,0.8,0,.85,1.15.85,0.82,0,3.1,0,3.1-2.87a3,3,0,0,0-3.17-3.28m14.77,0c-1.05,0-1.08.55-1.08,1.45V540c0,0.8,0,.85,1.15.85,0.83,0,3.11,0,3.11-2.87a3,3,0,0,0-3.17-3.28m64,0c-1.06,0-1.08.55-1.08,1.45V540c0,0.8,0,.85,1.15.85,0.83,0,3.1,0,3.1-2.87a3,3,0,0,0-3.17-3.28m0,0c-1.06,0-1.08.55-1.08,1.45V540c0,0.8,0,.85,1.15.85,0.83,0,3.1,0,3.1-2.87a3,3,0,0,0-3.17-3.28m-64,0c-1.05,0-1.08.55-1.08,1.45V540c0,0.8,0,.85,1.15.85,0.83,0,3.11,0,3.11-2.87a3,3,0,0,0-3.17-3.28m-14.77,0c-1.05,0-1.08.55-1.08,1.45V540c0,0.8,0,.85,1.15.85,0.82,0,3.1,0,3.1-2.87a3,3,0,0,0-3.17-3.28m0,0c-1.05,0-1.08.55-1.08,1.45V540c0,0.8,0,.85,1.15.85,0.82,0,3.1,0,3.1-2.87a3,3,0,0,0-3.17-3.28m14.77,0c-1.05,0-1.08.55-1.08,1.45V540c0,0.8,0,.85,1.15.85,0.83,0,3.11,0,3.11-2.87a3,3,0,0,0-3.17-3.28m64,0c-1.06,0-1.08.55-1.08,1.45V540c0,0.8,0,.85,1.15.85,0.83,0,3.1,0,3.1-2.87a3,3,0,0,0-3.17-3.28m0,0c-1.06,0-1.08.55-1.08,1.45V540c0,0.8,0,.85,1.15.85,0.83,0,3.1,0,3.1-2.87a3,3,0,0,0-3.17-3.28m-64,0c-1.05,0-1.08.55-1.08,1.45V540c0,0.8,0,.85,1.15.85,0.83,0,3.11,0,3.11-2.87a3,3,0,0,0-3.17-3.28m-14.77,0c-1.05,0-1.08.55-1.08,1.45V540c0,0.8,0,.85,1.15.85,0.82,0,3.1,0,3.1-2.87a3,3,0,0,0-3.17-3.28m0,0c-1.05,0-1.08.55-1.08,1.45V540c0,0.8,0,.85,1.15.85,0.82,0,3.1,0,3.1-2.87a3,3,0,0,0-3.17-3.28m14.77,0c-1.05,0-1.08.55-1.08,1.45V540c0,0.8,0,.85,1.15.85,0.83,0,3.11,0,3.11-2.87a3,3,0,0,0-3.17-3.28m64,0c-1.06,0-1.08.55-1.08,1.45V540c0,0.8,0,.85,1.15.85,0.83,0,3.1,0,3.1-2.87a3,3,0,0,0-3.17-3.28m0,0c-1.06,0-1.08.55-1.08,1.45V540c0,0.8,0,.85,1.15.85,0.83,0,3.1,0,3.1-2.87a3,3,0,0,0-3.17-3.28m-64,0c-1.05,0-1.08.55-1.08,1.45V540c0,0.8,0,.85,1.15.85,0.83,0,3.11,0,3.11-2.87a3,3,0,0,0-3.17-3.28m-14.77,0c-1.05,0-1.08.55-1.08,1.45V540c0,0.8,0,.85,1.15.85,0.82,0,3.1,0,3.1-2.87a3,3,0,0,0-3.17-3.28m0,0c-1.05,0-1.08.55-1.08,1.45V540c0,0.8,0,.85,1.15.85,0.82,0,3.1,0,3.1-2.87a3,3,0,0,0-3.17-3.28m14.77,0c-1.05,0-1.08.55-1.08,1.45V540c0,0.8,0,.85,1.15.85,0.83,0,3.11,0,3.11-2.87a3,3,0,0,0-3.17-3.28m64,0c-1.06,0-1.08.55-1.08,1.45V540c0,0.8,0,.85,1.15.85,0.83,0,3.1,0,3.1-2.87a3,3,0,0,0-3.17-3.28m0,0c-1.06,0-1.08.55-1.08,1.45V540c0,0.8,0,.85,1.15.85,0.83,0,3.1,0,3.1-2.87a3,3,0,0,0-3.17-3.28m-64,0c-1.05,0-1.08.55-1.08,1.45V540c0,0.8,0,.85,1.15.85,0.83,0,3.11,0,3.11-2.87a3,3,0,0,0-3.17-3.28m-14.77,0c-1.05,0-1.08.55-1.08,1.45V540c0,0.8,0,.85,1.15.85,0.82,0,3.1,0,3.1-2.87a3,3,0,0,0-3.17-3.28m88.12,0.77c0-.28-0.25-0.33-0.48-0.33h-0.46v0.69h0.4c0.29,0,.54,0,0.54-0.36m0,1.61-0.59-1h-0.39v1h-0.34v-2.23h0.85a0.63,0.63,0,0,1,.79.63,0.59,0.59,0,0,1-.58.61l0.63,1h-0.37Zm-0.57-2.73a1.61,1.61,0,1,0,1.57,1.61,1.56,1.56,0,0,0-1.57-1.61m-87.59.35c-1.05,0-1.08.55-1.08,1.45V540c0,0.8,0,.85,1.15.85,0.82,0,3.1,0,3.1-2.87a3,3,0,0,0-3.17-3.28m14.77,0c-1.05,0-1.08.55-1.08,1.45V540c0,0.8,0,.85,1.15.85,0.83,0,3.11,0,3.11-2.87a3,3,0,0,0-3.17-3.28m64,0c-1.06,0-1.08.55-1.08,1.45V540c0,0.8,0,.85,1.15.85,0.83,0,3.1,0,3.1-2.87a3,3,0,0,0-3.17-3.28m8.78,3.2a1.93,1.93,0,1,1,2-1.94,1.93,1.93,0,0,1-2,1.94m-0.86,10.56c-0.3,0-1.79-.09-2.14-0.09-0.18,0-1,.09-1.24.09-0.41,0-.5-0.2-0.75-0.69l-2.78-5.24c-0.51-1-.62-1.08-1.65-1.08-0.4,0-.44.13-0.44,0.53v4.14c0,1,0,1.58,1.15,1.65,0.5,0,.82,0,0.82.39s-0.3.3-.48,0.3c-0.43,0-2.67-.09-2.76-0.09-0.39,0-2.25.09-2.66,0.09-0.18,0-.49,0-0.49-0.32s0.35-.35.83-0.37c1.12-.09,1.12-0.69,1.12-1.65v-9.74c0-.94,0-1.57-1.12-1.63-0.51,0-.83,0-0.83-0.37s0.1-.32.85-0.32c0.23,0,1.36.09,1.63,0.09,0.62,0,3.68-.09,4.37-0.09,4.07,0,4.41,2.8,4.41,3.6a3.45,3.45,0,0,1-3.15,3.4,2.61,2.61,0,0,1,1.11,1.28l2.22,4c0.46,0.8.78,1.38,1.43,1.47s0.94,0.12.94,0.41a0.31,0.31,0,0,1-.39.27m-15.35-.69c0,0.44-.25.69-0.91,0.69-1.18,0-2.78,0-4.12,0l-2.52,0h-0.28c-0.94,0-1.52,0-1.88,0l-0.71,0a0.37,0.37,0,0,1-.48-0.34c0-.32.34-0.35,0.82-0.39,1.15-.07,1.15-0.69,1.15-1.63v-9.69c0-.94,0-1.56-1.15-1.63-0.51,0-.82,0-0.82-0.39a0.36,0.36,0,0,1,.46-0.32,5.2,5.2,0,0,0,.57,0c0.5,0,1.49,0,3.45,0h1.1c2.37,0,3.54,0,4.16,0s0.62,0,.69,0c0.28,0,.28.18,0.28,0.71v2.11c0,0.12,0,.39-0.23.39s-0.3-.09-0.71-0.94c-0.27-.6-0.82-1.47-4.09-1.47-1.16,0-1.25.16-1.25,1.31v3.33c0,0.74,0,.92,1.34.92,2.55,0,2.75-.5,3.17-1.72a0.38,0.38,0,0,1,.34-0.35c0.14,0,.25.07,0.25,0.32s-0.16,2.69-.16,3.2c0,0.16.07,1,.07,1.15s0,0.46-.27.46-0.32-.11-0.44-0.55c-0.48-1.77-1.13-1.79-3-1.79-1.1,0-1.29,0-1.29.69v4c0,1.63.49,1.88,2.42,1.88a3.32,3.32,0,0,0,3.45-1.95c0.41-.8.46-0.89,0.66-0.89a0.31,0.31,0,0,1,.27.34c0,0.3-.25,1.77-0.32,2.62M653.7,536.8c0,0.46-.07.73-0.37,0.73-0.12,0-.27,0-0.37-0.5-0.39-2.2-1.52-2.2-3-2.2-1.32,0-1.43,0-1.43.76v10.47c0,0.94,0,1.56,1.15,1.63,0.49,0,.81,0,0.81.39s-0.3.34-.49,0.34c-0.76,0-1.95-.09-2.71-0.09-0.39,0-2.25.09-2.69,0.09-0.19,0-.48,0-0.48-0.34s0.32-.35.8-0.39c1.15-.07,1.15-0.69,1.15-1.59V535.41c0-.6-0.19-0.6-0.64-0.6-1.38,0-2.9,0-4.07,2.18a0.61,0.61,0,0,1-.53.46,0.3,0.3,0,0,1-.3-0.3,1.87,1.87,0,0,1,.07-0.37l0.94-3.24c0.07-.28.14-0.41,0.34-0.41a0.28,0.28,0,0,1,.28.32,0.81,0.81,0,0,0,1,.64h7.37c2.36,0,2.48-.3,2.64-0.71a0.37,0.37,0,0,1,.32-0.32c0.32,0,.32.37,0.32,0.92Zm-18.43,11.76a7.23,7.23,0,0,1-3.65-.92,1.24,1.24,0,0,1-.27-1.08c0-.09,0-1.24.07-2.07a0.36,0.36,0,0,1,.3-0.41,0.38,0.38,0,0,1,.32.39,4.09,4.09,0,0,0,3.63,3.5,2.66,2.66,0,0,0,2.73-2.55c0-1.79-1.57-2.67-3.22-3.42-1.86-.83-3.68-1.72-3.68-4.16,0-2.11,1.61-4,4.53-4a9,9,0,0,1,3,.53c0.27,0.16.27,0.37,0.27,2.39,0,0.51,0,.69-0.32.69s-0.32-.14-0.55-0.85a2.52,2.52,0,0,0-2.6-2.2,2.25,2.25,0,0,0-2.5,2.2c0,1.63,1.33,2.2,3.17,3,1.29,0.55,3.7,1.67,3.7,4.27a4.64,4.64,0,0,1-4.94,4.68m-5.88-.83c0,0.44-.25.69-0.92,0.69-1.17,0-2.78,0-4.11,0l-2.53,0h-0.27c-0.94,0-1.52,0-1.89,0l-0.71,0a0.37,0.37,0,0,1-.48-0.34c0-.32.35-0.35,0.83-0.39,1.15-.07,1.15-0.69,1.15-1.63v-9.69c0-.94,0-1.56-1.15-1.63-0.5,0-.83,0-0.83-0.39a0.36,0.36,0,0,1,.46-0.32,5.29,5.29,0,0,0,.58,0c0.51,0,1.49,0,3.45,0h1.1c2.37,0,3.54,0,4.16,0s0.62,0,.69,0c0.27,0,.27.18,0.27,0.71v2.11c0,0.12,0,.39-0.23.39s-0.29-.09-0.71-0.94c-0.27-.6-0.82-1.47-4.09-1.47-1.15,0-1.24.16-1.24,1.31v3.33c0,0.74,0,.92,1.33.92,2.55,0,2.76-.5,3.17-1.72a0.38,0.38,0,0,1,.34-0.35,0.26,0.26,0,0,1,.25.32c0,0.32-.16,2.69-0.16,3.2,0,0.16.07,1,.07,1.15s0,0.46-.27.46-0.32-.11-0.43-0.55c-0.48-1.77-1.13-1.79-3-1.79-1.1,0-1.28,0-1.28.69v4c0,1.63.48,1.88,2.41,1.88a3.31,3.31,0,0,0,3.45-1.95c0.42-.8.46-0.89,0.66-0.89a0.31,0.31,0,0,1,.28.34c0,0.3-.26,1.77-0.32,2.62m-12,.69c-0.3,0-1.8-.09-2.14-0.09-0.18,0-1,.09-1.24.09-0.41,0-.5-0.2-0.75-0.69l-2.78-5.24c-0.51-1-.62-1.08-1.66-1.08-0.39,0-.43.13-0.43,0.53v4.14c0,1,0,1.58,1.15,1.65,0.51,0,.83,0,0.83.39s-0.3.3-.48,0.3c-0.44,0-2.67-.09-2.76-0.09-0.39,0-2.25.09-2.66,0.09-0.19,0-.49,0-0.49-0.32s0.35-.35.83-0.37c1.13-.09,1.13-0.69,1.13-1.65v-9.74c0-.94,0-1.57-1.13-1.63-0.51,0-.83,0-0.83-0.37s0.1-.32.85-0.32c0.23,0,1.35.09,1.63,0.09,0.62,0,3.68-.09,4.37-0.09,4.07,0,4.41,2.8,4.41,3.6a3.45,3.45,0,0,1-3.15,3.4,2.58,2.58,0,0,1,1.1,1.28l2.23,4c0.46,0.8.78,1.38,1.43,1.47s0.94,0.12.94,0.41a0.31,0.31,0,0,1-.39.27m-14.77,0c-0.3,0-1.79-.09-2.14-0.09-0.18,0-1,.09-1.24.09-0.41,0-.51-0.2-0.76-0.69l-2.78-5.24c-0.51-1-.62-1.08-1.65-1.08-0.4,0-.44.13-0.44,0.53v4.14c0,1,0,1.58,1.15,1.65,0.5,0,.82,0,0.82.39s-0.3.3-.48,0.3c-0.44,0-2.67-.09-2.76-0.09-0.39,0-2.25.09-2.66,0.09-0.19,0-.48,0-0.48-0.32s0.34-.35.82-0.37c1.13-.09,1.13-0.69,1.13-1.65v-9.74c0-.94,0-1.57-1.13-1.63-0.51,0-.82,0-0.82-0.37s0.09-.32.85-0.32c0.23,0,1.36.09,1.63,0.09,0.62,0,3.67-.09,4.37-0.09,4.06,0,4.41,2.8,4.41,3.6a3.45,3.45,0,0,1-3.15,3.4,2.61,2.61,0,0,1,1.11,1.28l2.22,4c0.46,0.8.78,1.38,1.42,1.47s0.94,0.12.94,0.41a0.31,0.31,0,0,1-.39.27m-21.09.14c-4,0-7.85-3-7.85-7.37,0-4.14,3.47-7.31,7.92-7.31,4.29,0,7.76,3.15,7.76,7.1a7.8,7.8,0,0,1-7.84,7.58m-8.15-13.68c0,0.08,0,.51-0.3.51a0.78,0.78,0,0,1-.54-0.54c-0.65-1.49-1.08-2.37-5-2.37-0.92,0-1.38.06-1.38,1.32v3.59c0,1.45.08,1.48,0.43,1.53s1.24,0.05,1.64.05c2.19,0,2.48-.62,2.91-2a0.47,0.47,0,0,1,.43-0.44c0.27,0,.32.2,0.32,0.46s-0.08,2.21-.08,2.61c0,0.24,0,.71.06,1.32l0.11,1.27c0,0.18,0,.51-0.33.51a0.47,0.47,0,0,1-.43-0.43c0-.13-0.24-0.88-0.29-1-0.38-1.46-2.11-1.46-2.78-1.46-2,0-2,0-2,1.27v4.59c0,1.05,0,1.86,1.24,1.94,0.78,0,1.16.06,1.16,0.46s-0.35.38-.57,0.38c-0.92,0-2.34-.11-3.26-0.11s-2.33.11-3.22,0.11a0.44,0.44,0,0,1-.57-0.4c0-.38.41-0.41,1-0.43,1.35-.11,1.35-0.81,1.35-1.92v-11.4c0-1.11,0-1.84-1.35-1.92-0.57-.06-1-0.08-1-0.46a0.43,0.43,0,0,1,.54-0.38,5.89,5.89,0,0,0,.76.06c0.7,0,2,.06,4.69.06h0.32c2.8,0,4.2,0,4.9-.06a4.82,4.82,0,0,0,.79-0.06c0.43,0,.46.13,0.46,0.49v2.86Zm47.55-19.21c-43.59,0-78.93,11.49-78.93,25.67S577.34,567,620.93,567s78.92-11.49,78.92-25.67-35.34-25.67-78.92-25.67m61.89,19.76c0-.28-0.25-0.33-0.48-0.33h-0.46v0.69h0.4c0.29,0,.54,0,0.54-0.36m0,1.61-0.59-1h-0.39v1h-0.34v-2.23h0.85a0.63,0.63,0,0,1,.79.63,0.59,0.59,0,0,1-.58.61l0.63,1h-0.37Zm-0.57-2.73a1.61,1.61,0,1,0,1.57,1.61,1.56,1.56,0,0,0-1.57-1.61m-87.59.35c-1.05,0-1.08.55-1.08,1.45V540c0,0.8,0,.85,1.15.85,0.82,0,3.1,0,3.1-2.87a3,3,0,0,0-3.17-3.28m14.77,0c-1.05,0-1.08.55-1.08,1.45V540c0,0.8,0,.85,1.15.85,0.83,0,3.11,0,3.11-2.87a3,3,0,0,0-3.17-3.28m64,0c-1.06,0-1.08.55-1.08,1.45V540c0,0.8,0,.85,1.15.85,0.83,0,3.1,0,3.1-2.87a3,3,0,0,0-3.17-3.28m9.32,0.77c0-.28-0.25-0.33-0.48-0.33h-0.46v0.69h0.4c0.29,0,.54,0,0.54-0.36m0,1.61-0.59-1h-0.39v1h-0.34v-2.23h0.85a0.63,0.63,0,0,1,.79.63,0.59,0.59,0,0,1-.58.61l0.63,1h-0.37Zm-0.57-2.73a1.61,1.61,0,1,0,1.57,1.61,1.56,1.56,0,0,0-1.57-1.61m-8.78.35c-1.06,0-1.08.55-1.08,1.45V540c0,0.8,0,.85,1.15.85,0.83,0,3.1,0,3.1-2.87a3,3,0,0,0-3.17-3.28m-64,0c-1.05,0-1.08.55-1.08,1.45V540c0,0.8,0,.85,1.15.85,0.83,0,3.11,0,3.11-2.87a3,3,0,0,0-3.17-3.28m-14.77,0c-1.05,0-1.08.55-1.08,1.45V540c0,0.8,0,.85,1.15.85,0.82,0,3.1,0,3.1-2.87a3,3,0,0,0-3.17-3.28m0,0c-1.05,0-1.08.55-1.08,1.45V540c0,0.8,0,.85,1.15.85,0.82,0,3.1,0,3.1-2.87a3,3,0,0,0-3.17-3.28m14.77,0c-1.05,0-1.08.55-1.08,1.45V540c0,0.8,0,.85,1.15.85,0.83,0,3.11,0,3.11-2.87a3,3,0,0,0-3.17-3.28m64,0c-1.06,0-1.08.55-1.08,1.45V540c0,0.8,0,.85,1.15.85,0.83,0,3.1,0,3.1-2.87a3,3,0,0,0-3.17-3.28m0,0c-1.06,0-1.08.55-1.08,1.45V540c0,0.8,0,.85,1.15.85,0.83,0,3.1,0,3.1-2.87a3,3,0,0,0-3.17-3.28m-64,0c-1.05,0-1.08.55-1.08,1.45V540c0,0.8,0,.85,1.15.85,0.83,0,3.11,0,3.11-2.87a3,3,0,0,0-3.17-3.28m-14.77,0c-1.05,0-1.08.55-1.08,1.45V540c0,0.8,0,.85,1.15.85,0.82,0,3.1,0,3.1-2.87a3,3,0,0,0-3.17-3.28m0,0c-1.05,0-1.08.55-1.08,1.45V540c0,0.8,0,.85,1.15.85,0.82,0,3.1,0,3.1-2.87a3,3,0,0,0-3.17-3.28m14.77,0c-1.05,0-1.08.55-1.08,1.45V540c0,0.8,0,.85,1.15.85,0.83,0,3.11,0,3.11-2.87a3,3,0,0,0-3.17-3.28m64,0c-1.06,0-1.08.55-1.08,1.45V540c0,0.8,0,.85,1.15.85,0.83,0,3.1,0,3.1-2.87a3,3,0,0,0-3.17-3.28m0,0c-1.06,0-1.08.55-1.08,1.45V540c0,0.8,0,.85,1.15.85,0.83,0,3.1,0,3.1-2.87a3,3,0,0,0-3.17-3.28m-64,0c-1.05,0-1.08.55-1.08,1.45V540c0,0.8,0,.85,1.15.85,0.83,0,3.11,0,3.11-2.87a3,3,0,0,0-3.17-3.28m-14.77,0c-1.05,0-1.08.55-1.08,1.45V540c0,0.8,0,.85,1.15.85,0.82,0,3.1,0,3.1-2.87a3,3,0,0,0-3.17-3.28m0,0c-1.05,0-1.08.55-1.08,1.45V540c0,0.8,0,.85,1.15.85,0.82,0,3.1,0,3.1-2.87a3,3,0,0,0-3.17-3.28m14.77,0c-1.05,0-1.08.55-1.08,1.45V540c0,0.8,0,.85,1.15.85,0.83,0,3.11,0,3.11-2.87a3,3,0,0,0-3.17-3.28m64,0c-1.06,0-1.08.55-1.08,1.45V540c0,0.8,0,.85,1.15.85,0.83,0,3.1,0,3.1-2.87a3,3,0,0,0-3.17-3.28m0,0c-1.06,0-1.08.55-1.08,1.45V540c0,0.8,0,.85,1.15.85,0.83,0,3.1,0,3.1-2.87a3,3,0,0,0-3.17-3.28m-64,0c-1.05,0-1.08.55-1.08,1.45V540c0,0.8,0,.85,1.15.85,0.83,0,3.11,0,3.11-2.87a3,3,0,0,0-3.17-3.28m-14.77,0c-1.05,0-1.08.55-1.08,1.45V540c0,0.8,0,.85,1.15.85,0.82,0,3.1,0,3.1-2.87a3,3,0,0,0-3.17-3.28m0,0c-1.05,0-1.08.55-1.08,1.45V540c0,0.8,0,.85,1.15.85,0.82,0,3.1,0,3.1-2.87a3,3,0,0,0-3.17-3.28m14.77,0c-1.05,0-1.08.55-1.08,1.45V540c0,0.8,0,.85,1.15.85,0.83,0,3.11,0,3.11-2.87a3,3,0,0,0-3.17-3.28m64,0c-1.06,0-1.08.55-1.08,1.45V540c0,0.8,0,.85,1.15.85,0.83,0,3.1,0,3.1-2.87a3,3,0,0,0-3.17-3.28m0,0c-1.06,0-1.08.55-1.08,1.45V540c0,0.8,0,.85,1.15.85,0.83,0,3.1,0,3.1-2.87a3,3,0,0,0-3.17-3.28m-64,0c-1.05,0-1.08.55-1.08,1.45V540c0,0.8,0,.85,1.15.85,0.83,0,3.11,0,3.11-2.87a3,3,0,0,0-3.17-3.28m-14.77,0c-1.05,0-1.08.55-1.08,1.45V540c0,0.8,0,.85,1.15.85,0.82,0,3.1,0,3.1-2.87a3,3,0,0,0-3.17-3.28m0,0c-1.05,0-1.08.55-1.08,1.45V540c0,0.8,0,.85,1.15.85,0.82,0,3.1,0,3.1-2.87a3,3,0,0,0-3.17-3.28m14.77,0c-1.05,0-1.08.55-1.08,1.45V540c0,0.8,0,.85,1.15.85,0.83,0,3.11,0,3.11-2.87a3,3,0,0,0-3.17-3.28m64,0c-1.06,0-1.08.55-1.08,1.45V540c0,0.8,0,.85,1.15.85,0.83,0,3.1,0,3.1-2.87a3,3,0,0,0-3.17-3.28m0,0c-1.06,0-1.08.55-1.08,1.45V540c0,0.8,0,.85,1.15.85,0.83,0,3.1,0,3.1-2.87a3,3,0,0,0-3.17-3.28m-64,0c-1.05,0-1.08.55-1.08,1.45V540c0,0.8,0,.85,1.15.85,0.83,0,3.11,0,3.11-2.87a3,3,0,0,0-3.17-3.28m-14.77,0c-1.05,0-1.08.55-1.08,1.45V540c0,0.8,0,.85,1.15.85,0.82,0,3.1,0,3.1-2.87a3,3,0,0,0-3.17-3.28m0,0c-1.05,0-1.08.55-1.08,1.45V540c0,0.8,0,.85,1.15.85,0.82,0,3.1,0,3.1-2.87a3,3,0,0,0-3.17-3.28m14.77,0c-1.05,0-1.08.55-1.08,1.45V540c0,0.8,0,.85,1.15.85,0.83,0,3.11,0,3.11-2.87a3,3,0,0,0-3.17-3.28m0,0c-1.05,0-1.08.55-1.08,1.45V540c0,0.8,0,.85,1.15.85,0.83,0,3.11,0,3.11-2.87a3,3,0,0,0-3.17-3.28m-14.77,0c-1.05,0-1.08.55-1.08,1.45V540c0,0.8,0,.85,1.15.85,0.82,0,3.1,0,3.1-2.87a3,3,0,0,0-3.17-3.28m0,0c-1.05,0-1.08.55-1.08,1.45V540c0,0.8,0,.85,1.15.85,0.82,0,3.1,0,3.1-2.87a3,3,0,0,0-3.17-3.28m14.77,0c-1.05,0-1.08.55-1.08,1.45V540c0,0.8,0,.85,1.15.85,0.83,0,3.11,0,3.11-2.87a3,3,0,0,0-3.17-3.28m0,0c-1.05,0-1.08.55-1.08,1.45V540c0,0.8,0,.85,1.15.85,0.83,0,3.11,0,3.11-2.87a3,3,0,0,0-3.17-3.28m-14.77,0c-1.05,0-1.08.55-1.08,1.45V540c0,0.8,0,.85,1.15.85,0.82,0,3.1,0,3.1-2.87a3,3,0,0,0-3.17-3.28m0,0c-1.05,0-1.08.55-1.08,1.45V540c0,0.8,0,.85,1.15.85,0.82,0,3.1,0,3.1-2.87a3,3,0,0,0-3.17-3.28m0,0c-1.05,0-1.08.55-1.08,1.45V540c0,0.8,0,.85,1.15.85,0.82,0,3.1,0,3.1-2.87a3,3,0,0,0-3.17-3.28" transform="translate(-542 -515.67)"/></g></svg>